<svg width="27" height="40" viewBox="0 0 27 40" fill="none" xmlns="http://www.w3.org/2000/svg">
<g clip-path="url(#clip0_273_34)">
<path d="M6.75 40C10.476 40 13.5 37.0133 13.5 33.3333V26.6667H6.75C3.024 26.6667 0 29.6533 0 33.3333C0 37.0133 3.024 40 6.75 40Z" fill="#0ACF83"/>
<path d="M0 20C0 16.32 3.024 13.3333 6.75 13.3333H13.5V26.6667H6.75C3.024 26.6667 0 23.68 0 20Z" fill="#A259FF"/>
<path d="M0 6.66667C0 2.98667 3.024 0 6.75 0H13.5V13.3333H6.75C3.024 13.3333 0 10.3467 0 6.66667Z" fill="#F24E1E"/>
<path d="M13.5 0H20.25C23.976 0 27 2.98667 27 6.66667C27 10.3467 23.976 13.3333 20.25 13.3333H13.5V0Z" fill="#FF7262"/>
<path d="M27 20C27 23.68 23.976 26.6667 20.25 26.6667C16.524 26.6667 13.5 23.68 13.5 20C13.5 16.32 16.524 13.3333 20.25 13.3333C23.976 13.3333 27 16.32 27 20Z" fill="#1ABCFE"/>
</g>
<defs>
<clipPath id="clip0_273_34">
<rect width="27" height="40" fill="white"/>
</clipPath>
</defs>
</svg>
