<svg width="40" height="40" viewBox="0 0 40 40" fill="none" xmlns="http://www.w3.org/2000/svg">
<path d="M6.66669 11.6667C6.66669 11.2246 6.84228 10.8007 7.15484 10.4882C7.4674 10.1756 7.89133 10 8.33335 10H31.6667C32.1087 10 32.5326 10.1756 32.8452 10.4882C33.1578 10.8007 33.3334 11.2246 33.3334 11.6667C33.3334 12.1087 33.1578 12.5326 32.8452 12.8452C32.5326 13.1577 32.1087 13.3333 31.6667 13.3333H8.33335C7.89133 13.3333 7.4674 13.1577 7.15484 12.8452C6.84228 12.5326 6.66669 12.1087 6.66669 11.6667ZM6.66669 20C6.66669 19.558 6.84228 19.134 7.15484 18.8215C7.4674 18.5089 7.89133 18.3333 8.33335 18.3333H31.6667C32.1087 18.3333 32.5326 18.5089 32.8452 18.8215C33.1578 19.134 33.3334 19.558 33.3334 20C33.3334 20.442 33.1578 20.8659 32.8452 21.1785C32.5326 21.4911 32.1087 21.6667 31.6667 21.6667H8.33335C7.89133 21.6667 7.4674 21.4911 7.15484 21.1785C6.84228 20.8659 6.66669 20.442 6.66669 20ZM6.66669 28.3333C6.66669 27.8913 6.84228 27.4674 7.15484 27.1548C7.4674 26.8423 7.89133 26.6667 8.33335 26.6667H31.6667C32.1087 26.6667 32.5326 26.8423 32.8452 27.1548C33.1578 27.4674 33.3334 27.8913 33.3334 28.3333C33.3334 28.7754 33.1578 29.1993 32.8452 29.5118C32.5326 29.8244 32.1087 30 31.6667 30H8.33335C7.89133 30 7.4674 29.8244 7.15484 29.5118C6.84228 29.1993 6.66669 28.7754 6.66669 28.3333Z" fill="#DADADA"/>
</svg>
