<svg width="45" height="40" viewBox="0 0 45 40" fill="none" xmlns="http://www.w3.org/2000/svg">
<path d="M36.999 12.9648C36.5201 12.8007 36.0371 12.6486 35.5505 12.5087C35.6323 12.1751 35.7075 11.8454 35.7743 11.5216C36.8708 6.20368 36.154 1.91948 33.7055 0.508911C31.358 -0.843349 27.5187 0.566689 23.6413 3.93803C23.2592 4.27087 22.8855 4.61332 22.5207 4.96505C22.2765 4.73117 22.028 4.50184 21.7753 4.27715C17.7115 0.672412 13.6383 -0.846862 11.1925 0.567743C8.84707 1.92422 8.15256 5.95167 9.13975 10.9916C9.23796 11.4907 9.34886 11.9873 9.47232 12.4808C8.89576 12.6445 8.33941 12.8187 7.80697 13.0041C3.0426 14.6637 0 17.2645 0 19.9621C0 22.7483 3.26637 25.5429 8.22867 27.2375C8.63099 27.3743 9.03664 27.501 9.44525 27.6177C9.31259 28.1492 9.19477 28.6844 9.09193 29.2225C8.1508 34.1749 8.88574 38.1072 11.2249 39.4551C13.6408 40.847 17.6957 39.4164 21.6439 35.9682C21.9641 35.6878 22.2772 35.3995 22.583 35.1036C22.978 35.4844 23.3837 35.8542 23.7994 36.2124C27.624 39.5004 31.4012 40.828 33.738 39.4765C36.1517 38.0805 36.9362 33.8562 35.9177 28.7167C35.8375 28.3141 35.7475 27.9134 35.6479 27.5151C35.9327 27.4308 36.2122 27.3441 36.4846 27.2538C41.6435 25.5463 45 22.7856 45 19.9621C45 17.2546 41.8591 14.6363 36.999 12.9648ZM35.8801 25.4309C35.6338 25.5121 35.3818 25.5909 35.1243 25.6671C34.5547 23.8658 33.7862 21.9505 32.8456 19.9714C33.7431 18.0396 34.4821 16.1488 35.0357 14.3592C35.496 14.4923 35.9427 14.6327 36.3734 14.7807C40.5376 16.213 43.0777 18.3305 43.0777 19.9621C43.0777 21.7001 40.3344 23.9562 35.8801 25.4309ZM34.032 29.0897C34.4823 31.3622 34.5465 33.417 34.2482 35.0233C33.9803 36.4667 33.4413 37.429 32.7748 37.8144C31.3567 38.6346 28.324 37.5686 25.0532 34.7566C24.6666 34.4235 24.2893 34.0797 23.9217 33.7257C25.1898 32.3402 26.457 30.7296 27.6938 28.9408C29.8693 28.748 31.9245 28.4326 33.7883 28.0021C33.8803 28.3723 33.9615 28.7349 34.032 29.0897ZM15.3415 37.6727C13.956 38.1615 12.8524 38.1755 12.1853 37.7913C10.7659 36.9734 10.1758 33.816 10.9807 29.5807C11.0764 29.0803 11.1859 28.5826 11.3092 28.0882C13.1525 28.4956 15.1928 28.7885 17.3733 28.9652C18.6186 30.7156 19.9223 32.3244 21.2363 33.7332C20.9571 34.0032 20.6712 34.2662 20.379 34.5221C18.633 36.0468 16.8834 37.1286 15.3415 37.6727ZM8.85059 25.4202C6.65631 24.6708 4.84418 23.697 3.60211 22.6343C2.4859 21.6795 1.92252 20.7313 1.92252 19.9621C1.92252 18.325 4.36535 16.2369 8.43979 14.8178C8.93426 14.6456 9.45176 14.4832 9.98877 14.3308C10.552 16.1607 11.2906 18.0741 12.182 20.0089C11.279 21.9723 10.5298 23.9162 9.96117 25.7677C9.58819 25.661 9.21788 25.5451 8.85059 25.4202ZM11.0264 10.6226C10.1807 6.30466 10.7423 3.04747 12.1558 2.22997C13.6612 1.35925 16.9901 2.6007 20.4989 5.71336C20.7277 5.91678 20.9528 6.12434 21.1741 6.33592C19.8666 7.73858 18.5748 9.33548 17.3406 11.0755C15.2242 11.2715 13.1984 11.5862 11.3358 12.0079C11.221 11.5488 11.1178 11.0868 11.0264 10.6226ZM30.4374 15.4115C29.9975 14.6523 29.5412 13.9027 29.0689 13.1631C30.5047 13.3445 31.8804 13.5853 33.1722 13.8796C32.7844 15.1216 32.301 16.4199 31.732 17.7511C31.3161 16.9627 30.8845 16.1827 30.4374 15.4115ZM22.5216 7.70873C23.4083 8.66848 24.2963 9.73993 25.1698 10.9025C23.3979 10.8189 21.6231 10.8186 19.8512 10.9015C20.7255 9.74959 21.6211 8.67955 22.5216 7.70873ZM14.555 15.4245C14.1135 16.1895 13.69 16.9646 13.2847 17.7493C12.725 16.4229 12.246 15.1186 11.8549 13.8591C13.1388 13.5721 14.5079 13.3375 15.9346 13.1594C15.4571 13.9035 14.9971 14.6589 14.555 15.4245ZM15.9755 26.9013C14.5016 26.737 13.1119 26.5145 11.8283 26.2352C12.2256 24.9532 12.7151 23.6211 13.287 22.2663C13.6938 23.0516 14.1192 23.8272 14.5626 24.5925C15.0186 25.3793 15.4907 26.1499 15.9755 26.9013ZM22.5747 32.3508C21.6635 31.3687 20.7547 30.2822 19.8671 29.1136C20.7288 29.1473 21.6072 29.1645 22.5 29.1645C23.4172 29.1645 24.3239 29.144 25.2163 29.1043C24.3401 30.2939 23.4554 31.3821 22.5747 32.3508ZM31.7501 22.1971C32.3517 23.5669 32.8586 24.8919 33.2612 26.152C31.9565 26.4495 30.5478 26.689 29.0635 26.8669C29.5391 26.1136 29.9997 25.3509 30.445 24.5793C30.8977 23.795 31.3328 23.0007 31.7501 22.1971ZM28.7798 23.6197C28.0981 24.8027 27.3781 25.9633 26.621 27.0996C25.2495 27.1967 23.875 27.2449 22.5 27.2441C21.0996 27.2441 19.7374 27.2006 18.4257 27.1156C17.6488 25.982 16.9151 24.8194 16.2262 23.6303C15.5404 22.4475 14.9001 21.2392 14.3063 20.0078C14.8986 18.7761 15.5372 17.5672 16.2206 16.3836L16.2204 16.3837C16.9034 15.1997 17.6313 14.0421 18.4024 12.9134C19.7406 12.8122 21.1129 12.7595 22.4998 12.7595C23.8931 12.7595 25.2673 12.8127 26.6052 12.9146C27.3685 14.0416 28.0917 15.1953 28.7735 16.3734C29.459 17.5545 30.106 18.7575 30.7134 19.9806C30.1122 21.2161 29.4673 22.43 28.7798 23.6197ZM32.7454 2.17254C34.2522 3.0408 34.8383 6.5421 33.8915 11.1336C33.8308 11.4268 33.7634 11.7248 33.6894 12.0275C31.8222 11.5969 29.7949 11.2768 27.6724 11.0778C26.4359 9.31862 25.1546 7.71927 23.8685 6.33469C24.2056 6.01008 24.5507 5.69387 24.9035 5.38636C28.2257 2.49796 31.3307 1.3575 32.7454 2.17254ZM22.5 15.9475C24.7192 15.9475 26.5184 17.745 26.5184 19.9621C26.5184 22.1793 24.7192 23.9768 22.5 23.9768C20.2808 23.9768 18.4816 22.1793 18.4816 19.9621C18.4816 17.745 20.2808 15.9475 22.5 15.9475Z" fill="#00D8FF"/>
</svg>
