<svg width="42" height="40" viewBox="0 0 42 40" fill="none" xmlns="http://www.w3.org/2000/svg">
<g filter="url(#filter0_d_273_42)">
<path d="M21 10C16.55 10 13.7833 12.2167 12.6666 16.6667C14.3333 14.45 16.2833 13.6167 18.5 14.1667C19.7666 14.4833 20.6833 15.4 21.6833 16.4167C23.3166 18.0833 25.1666 20 29.3333 20C33.7833 20 36.55 17.7833 37.6666 13.3333C36 15.55 34.05 16.3833 31.8333 15.8333C30.5666 15.5167 29.6666 14.6 28.65 13.5833C27.0166 11.9167 25.1666 10 21 10ZM12.6666 20C8.21665 20 5.44998 22.2167 4.33331 26.6667C5.99998 24.45 7.94998 23.6167 10.1666 24.1667C11.4333 24.4833 12.3333 25.4 13.35 26.4167C14.9833 28.0833 16.8333 30 21 30C25.45 30 28.2166 27.7833 29.3333 23.3333C27.6666 25.55 25.7166 26.3833 23.5 25.8333C22.2333 25.5167 21.3333 24.6 20.3166 23.5833C18.6833 21.9167 16.8333 20 12.6666 20Z" fill="#00D8FF"/>
</g>
<defs>
<filter id="filter0_d_273_42" x="-3" y="0" width="48" height="48" filterUnits="userSpaceOnUse" color-interpolation-filters="sRGB">
<feFlood flood-opacity="0" result="BackgroundImageFix"/>
<feColorMatrix in="SourceAlpha" type="matrix" values="0 0 0 0 0 0 0 0 0 0 0 0 0 0 0 0 0 0 127 0" result="hardAlpha"/>
<feOffset dy="4"/>
<feGaussianBlur stdDeviation="2"/>
<feComposite in2="hardAlpha" operator="out"/>
<feColorMatrix type="matrix" values="0 0 0 0 0 0 0 0 0 0 0 0 0 0 0 0 0 0 0.25 0"/>
<feBlend mode="normal" in2="BackgroundImageFix" result="effect1_dropShadow_273_42"/>
<feBlend mode="normal" in="SourceGraphic" in2="effect1_dropShadow_273_42" result="shape"/>
</filter>
</defs>
</svg>
